<?xml version="1.0" encoding="UTF-8"?>
<svg xmlns="http://www.w3.org/2000/svg" xmlns:xlink="http://www.w3.org/1999/xlink" width="96px" height="96px" viewBox="0 0 96 96" version="1.1">
<g id="surface1">
<path style=" stroke:none;fill-rule:nonzero;fill:rgb(99.607843%,99.607843%,99.215686%);fill-opacity:1;" d="M 65.683594 97 C 43.789062 97 22.398438 97 1.011719 97 C 1.011719 65 1.011719 33 1.011719 1 C 33.011719 1 65.011719 1 97.011719 1 C 97.011719 33 97.011719 65 97.011719 97 C 86.738281 97 76.464844 97 65.683594 97 M 68.480469 76.160156 C 70.742188 75.207031 73.003906 74.253906 75.929688 73.019531 C 74.867188 81.355469 69.539062 86.492188 63.25 92.730469 C 66.046875 91.875 67.507812 91.625 68.792969 91.003906 C 86.019531 82.710938 96.164062 66.730469 95.640625 48.003906 C 94.851562 19.71875 70.105469 -0.445312 43.832031 2.925781 C 24.078125 5.460938 10.507812 16.199219 4.46875 34.867188 C -1.570312 53.527344 3.269531 70.226562 17.710938 83.539062 C 21.921875 87.425781 28.003906 89.332031 33.488281 92.582031 C 33.90625 92.550781 34.328125 92.519531 34.746094 92.488281 C 34.3125 92.292969 33.875 92.097656 33.15625 91.296875 C 19.058594 79.941406 16.835938 60.921875 22.71875 50.703125 C 29.742188 61.699219 29.742188 61.699219 33.9375 62.359375 C 28.714844 39.449219 35.855469 15.445312 49.65625 10.652344 C 47.714844 23.511719 53.933594 32.3125 63.683594 39.609375 C 66.414062 41.648438 68.769531 44.53125 70.480469 47.488281 C 76.269531 57.519531 73.757812 66.976562 67.347656 76.101562 C 67.472656 76.074219 67.597656 76.046875 68.480469 76.160156 M 55.527344 85.53125 C 55.382812 84.515625 55.269531 82.617188 55.089844 82.609375 C 50.570312 82.445312 46.039062 82.480469 40.785156 82.480469 C 44.839844 88.957031 48.703125 89.628906 55.527344 85.53125 Z M 55.527344 85.53125 "/>
<path style=" stroke:none;fill-rule:nonzero;fill:rgb(83.137255%,76.862745%,52.156863%);fill-opacity:1;" d="M 33.226562 92.144531 C 28.003906 89.332031 21.921875 87.425781 17.710938 83.539062 C 3.269531 70.226562 -1.570312 53.527344 4.46875 34.867188 C 10.507812 16.199219 24.078125 5.460938 43.832031 2.925781 C 70.105469 -0.445312 94.851562 19.71875 95.640625 48.003906 C 96.164062 66.730469 86.019531 82.710938 68.792969 91.003906 C 67.507812 91.625 66.046875 91.875 63.25 92.730469 C 69.539062 86.492188 74.867188 81.355469 75.929688 73.019531 C 73.003906 74.253906 70.742188 75.207031 68.09375 76.082031 C 67.707031 76.003906 67.691406 75.988281 67.691406 75.988281 C 73.757812 66.976562 76.269531 57.519531 70.480469 47.488281 C 68.769531 44.53125 66.414062 41.648438 63.683594 39.609375 C 53.933594 32.3125 47.714844 23.511719 49.65625 10.652344 C 35.855469 15.445312 28.714844 39.449219 33.9375 62.359375 C 29.742188 61.699219 29.742188 61.699219 22.71875 50.703125 C 16.835938 60.921875 19.058594 79.941406 33.246094 91.660156 C 33.332031 92.023438 33.226562 92.144531 33.226562 92.144531 Z M 33.226562 92.144531 "/>
<path style=" stroke:none;fill-rule:nonzero;fill:rgb(83.921569%,78.039216%,54.509804%);fill-opacity:1;" d="M 55.242188 85.800781 C 48.703125 89.628906 44.839844 88.957031 40.785156 82.480469 C 46.039062 82.480469 50.570312 82.445312 55.089844 82.609375 C 55.269531 82.617188 55.382812 84.515625 55.242188 85.800781 Z M 55.242188 85.800781 "/>
<path style=" stroke:none;fill-rule:nonzero;fill:rgb(83.137255%,76.862745%,52.156863%);fill-opacity:1;" d="M 33.386719 91.960938 C 33.875 92.097656 34.3125 92.292969 34.746094 92.488281 C 34.328125 92.519531 33.90625 92.550781 33.355469 92.363281 C 33.226562 92.144531 33.332031 92.023438 33.386719 91.960938 Z M 33.386719 91.960938 "/>
<path style=" stroke:none;fill-rule:nonzero;fill:rgb(83.137255%,76.862745%,52.156863%);fill-opacity:1;" d="M 67.714844 76.011719 C 67.597656 76.046875 67.472656 76.074219 67.519531 76.046875 C 67.691406 75.988281 67.707031 76.003906 67.714844 76.011719 Z M 67.714844 76.011719 "/>
</g>
</svg>
